<svg xmlns="http://www.w3.org/2000/svg" width="30" height="30" viewBox="0 0 30 30"><path fill="#FF008E" d="M29.25,12.188h-3V8.438A.862.862,0,0,0,25.5,7.5H24a.862.862,0,0,0-.75.938v3.75h-3a.862.862,0,0,0-.75.938V15a.862.862,0,0,0,.75.938h3v3.75a.862.862,0,0,0,.75.938h1.5a.862.862,0,0,0,.75-.937v-3.75h3A.862.862,0,0,0,30,15V13.125A.862.862,0,0,0,29.25,12.188ZM10.5,15c3.314,0,6-3.357,6-7.5S13.814,0,10.5,0s-6,3.357-6,7.5S7.186,15,10.5,15Zm4.2,1.875h-.783a6.7,6.7,0,0,1-6.834,0H6.3C2.822,16.875,0,20.4,0,24.75v2.438A2.58,2.58,0,0,0,2.25,30h16.5A2.58,2.58,0,0,0,21,27.188V24.75C21,20.4,18.178,16.875,14.7,16.875Z"/></svg>