<svg xmlns="http://www.w3.org/2000/svg" width="30" height="30" viewBox="0 0 29.25 29.25"><g transform="translate(-3.375 -3.375)"><path fill="#FF008E" d="M24.363,16.875H19.125V11.637a1.125,1.125,0,0,0-2.25,0v5.238H11.637A1.077,1.077,0,0,0,10.512,18a1.089,1.089,0,0,0,1.125,1.125h5.238v5.238A1.09,1.09,0,0,0,18,25.488a1.119,1.119,0,0,0,1.125-1.125V19.125h5.238a1.125,1.125,0,0,0,0-2.25Z"/><path fill="#FF008E"  d="M18,5.344A12.651,12.651,0,1,1,9.049,9.049,12.573,12.573,0,0,1,18,5.344m0-1.969A14.625,14.625,0,1,0,32.625,18,14.623,14.623,0,0,0,18,3.375Z"/></g></svg>