<svg xmlns="http://www.w3.org/2000/svg" width="30" height="30" viewBox="0 0 34.875 35.438"><path d="M28.125,3.8a17.435,17.435,0,1,1-20.264.007,1.693,1.693,0,0,1,2.461.541l1.111,1.976a1.687,1.687,0,0,1-.464,2.18A11.812,11.812,0,1,0,25.024,8.5a1.677,1.677,0,0,1-.457-2.173l1.111-1.976A1.685,1.685,0,0,1,28.125,3.8ZM20.813,18.563V1.688A1.683,1.683,0,0,0,19.125,0h-2.25a1.683,1.683,0,0,0-1.687,1.688V18.563a1.683,1.683,0,0,0,1.688,1.688h2.25A1.683,1.683,0,0,0,20.813,18.563Z" transform="translate(-0.563)" fill="#ff008e"/></svg>