<svg xmlns="http://www.w3.org/2000/svg" width="36" height="36" viewBox="0 0 36 36">
  <path id="Icon_awesome-spray-can" data-name="Icon awesome-spray-can" d="M15.75,2.25A2.25,2.25,0,0,0,13.5,0H9A2.25,2.25,0,0,0,6.75,2.25V9h9ZM33.75,9A2.25,2.25,0,1,0,36,11.25,2.25,2.25,0,0,0,33.75,9Zm-18,2.25h-9A6.75,6.75,0,0,0,0,18V33.75A2.25,2.25,0,0,0,2.25,36h18a2.25,2.25,0,0,0,2.25-2.25V18A6.75,6.75,0,0,0,15.75,11.25Zm-4.5,18a5.625,5.625,0,1,1,5.625-5.625A5.625,5.625,0,0,1,11.25,29.25Zm22.5-22.5A2.25,2.25,0,1,0,31.5,4.5,2.25,2.25,0,0,0,33.75,6.75ZM27,9a2.25,2.25,0,1,0,2.25,2.25A2.25,2.25,0,0,0,27,9ZM20.25,2.25A2.25,2.25,0,1,0,22.5,4.5,2.25,2.25,0,0,0,20.25,2.25Zm6.75,0A2.25,2.25,0,1,0,29.25,4.5,2.25,2.25,0,0,0,27,2.25Zm6.75,13.5A2.25,2.25,0,1,0,36,18,2.25,2.25,0,0,0,33.75,15.75Z"/>
</svg>
